<?xml version="1.0" standalone="no"?>
<!DOCTYPE svg PUBLIC "-//W3C//DTD SVG 20010904//EN"
 "http://www.w3.org/TR/2001/REC-SVG-20010904/DTD/svg10.dtd">
<svg version="1.0" xmlns="http://www.w3.org/2000/svg"
 width="256.000000pt" height="72.000000pt" viewBox="0 0 256.000000 72.000000"
 preserveAspectRatio="xMidYMid meet">

<g transform="translate(0.000000,72.000000) scale(0.100000,-0.100000)"
fill="#000000" stroke="none">
<path d="M294 580 c-31 -12 -36 -26 -18 -41 21 -18 175 -19 181 -2 3 9 -17 13
-69 16 l-73 3 80 0 c78 -1 80 -1 80 -26 l0 -25 -110 0 c-60 0 -116 -4 -122 -8
-18 -11 -16 -52 2 -67 11 -9 52 -14 127 -14 l110 -1 -6 -75 c-14 -160 -17
-171 -45 -182 -28 -10 -88 -5 -103 10 -5 5 -13 51 -19 103 -14 126 -18 144
-30 132 -8 -8 -7 -46 1 -124 14 -138 22 -149 111 -149 87 0 93 10 108 161 10
101 16 126 32 137 24 17 24 47 0 71 -10 10 -21 30 -25 45 -4 16 -17 31 -32 36
-31 12 -151 12 -180 0z m226 -116 c0 -15 -47 -24 -130 -24 -82 0 -130 9 -130
24 0 7 41 11 130 11 92 1 130 -3 130 -11z"/>
<path d="M705 437 c-2 -18 -6 -61 -7 -97 l-3 -65 47 0 c30 1 54 7 66 18 19 17
20 17 25 -3 4 -17 11 -19 59 -16 29 2 55 5 58 6 3 1 15 1 27 0 12 -1 31 4 42
10 19 10 19 7 -4 -26 -29 -42 -32 -82 -9 -91 26 -10 48 11 59 55 6 22 20 51
33 64 22 25 29 48 13 48 -5 0 -11 -7 -15 -15 -12 -33 -29 -15 -23 25 7 55 -7
58 -35 8 -13 -24 -31 -44 -42 -46 -15 -3 -17 2 -14 42 5 79 -17 61 -37 -28 -3
-17 -10 -25 -15 -20 -5 5 -5 25 0 48 5 22 7 44 4 48 -12 19 -24 5 -39 -47 -20
-70 -40 -74 -31 -6 6 49 -8 81 -20 44 -3 -10 -8 -25 -11 -33 -7 -25 -26 17
-19 44 8 33 -13 53 -61 59 -41 5 -43 4 -48 -26z m69 -3 c24 -9 19 -33 -10 -44
-34 -13 -34 -13 -34 14 0 13 6 27 13 29 6 3 13 6 14 6 1 1 8 -2 17 -5z m22
-89 c9 -23 -15 -45 -47 -45 -24 0 -29 4 -29 24 0 13 6 27 13 29 25 11 58 6 63
-8z m235 -138 c-13 -13 -15 1 -4 30 7 17 8 17 11 -1 2 -10 -1 -23 -7 -29z"/>
<path d="M1975 458 c-2 -7 -7 -40 -11 -73 -6 -53 -8 -56 -14 -29 -10 45 -18
54 -50 54 -31 0 -70 -39 -70 -69 0 -24 -20 -41 -47 -41 -19 0 -23 5 -23 33 0
17 5 39 10 47 8 12 10 10 10 -8 0 -15 5 -22 13 -19 6 2 12 15 12 28 0 17 -6
25 -22 27 -44 6 -73 -87 -37 -122 19 -20 31 -20 66 -2 23 12 29 12 39 0 15
-18 40 -18 65 1 35 27 44 19 44 -40 0 -42 4 -56 18 -64 22 -12 38 -3 51 29 6
16 10 19 10 8 1 -29 30 -49 53 -37 17 9 19 19 16 60 -3 52 4 59 34 32 16 -14
24 -15 49 -6 23 9 35 9 49 1 25 -16 61 1 79 36 20 37 7 44 -22 10 -16 -18 -29
-25 -40 -21 -23 9 -21 20 6 32 16 7 23 20 25 48 3 37 2 38 -25 35 -21 -2 -30
-10 -36 -33 -16 -54 -32 -80 -52 -80 -27 0 -29 19 -3 30 17 7 24 20 26 48 3
37 2 38 -25 35 -23 -2 -30 -10 -41 -43 -13 -40 -26 -55 -50 -55 -10 0 -11 19
-6 81 6 68 5 81 -7 77 -9 -3 -16 -26 -20 -66 -6 -63 -21 -92 -46 -92 -13 0
-14 13 -8 80 5 57 4 80 -4 80 -7 0 -13 -6 -16 -12z m-58 -110 c-3 -7 -5 -2 -5
12 0 14 2 19 5 13 2 -7 2 -19 0 -25z m261 20 c-2 -6 -10 -14 -16 -16 -7 -2
-10 2 -6 12 7 18 28 22 22 4z m92 3 c0 -6 -4 -13 -10 -16 -5 -3 -10 1 -10 9 0
9 5 16 10 16 6 0 10 -4 10 -9z m-370 -58 c0 -7 -9 -13 -20 -13 -15 0 -20 7
-20 28 0 16 3 32 7 36 8 7 32 -31 33 -51z m140 -43 c0 -11 -2 -20 -4 -20 -2 0
-6 9 -9 20 -3 11 -1 20 4 20 5 0 9 -9 9 -20z m-35 -30 c0 -13 -6 -25 -12 -27
-9 -3 -13 6 -13 27 0 21 4 30 13 28 6 -3 12 -15 12 -28z m85 0 c0 -22 -16 -35
-25 -20 -9 14 4 52 16 45 5 -4 9 -15 9 -25z"/>
<path d="M1206 401 c-3 -5 -14 -7 -24 -5 -15 4 -17 -3 -17 -61 -1 -80 16 -87
36 -12 18 67 44 72 44 8 0 -60 18 -62 36 -4 20 66 42 70 33 6 -7 -59 10 -82
46 -63 16 9 25 8 36 0 22 -19 62 -3 80 31 21 41 11 48 -19 13 -16 -18 -29 -25
-40 -21 -23 9 -21 20 6 32 16 7 23 20 25 48 3 37 2 38 -25 35 -24 -3 -30 -10
-43 -50 -8 -26 -21 -53 -29 -60 -11 -11 -13 -6 -8 31 3 25 1 53 -4 63 -11 21
-39 24 -57 6 -9 -9 -15 -9 -24 0 -14 14 -44 16 -52 3z m224 -30 c0 -6 -4 -13
-10 -16 -5 -3 -10 1 -10 9 0 9 5 16 10 16 6 0 10 -4 10 -9z"/>
<path d="M1557 392 c-45 -49 -24 -137 26 -111 16 9 22 9 25 0 8 -23 51 -12 67
19 17 34 19 50 5 50 -5 0 -10 -6 -10 -13 0 -8 -10 -22 -21 -33 l-22 -19 7 58
c5 42 3 57 -6 57 -7 0 -22 3 -33 6 -13 3 -27 -2 -38 -14z m43 -31 c0 -30 -11
-51 -26 -51 -17 0 -18 24 -4 51 14 24 30 25 30 0z"/>
</g>
</svg>
